<svg width="24" height="15" viewBox="0 0 24 15" fill="none" xmlns="http://www.w3.org/2000/svg">
<g clip-path="url(#clip0_38_25)">
<path d="M19.4766 11.3379L18.7954 14.291C18.6997 14.7085 18.3328 15.0006 17.903 15.0006C10.5117 15 4.5 8.98827 4.5 1.59667C4.5 1.16718 4.79206 0.799794 5.20957 0.704579L8.1627 0.0234268C8.59277 -0.0762411 9.03223 0.147001 9.21094 0.554286L10.5738 3.733C10.7331 4.10741 10.6257 4.54364 10.3107 4.80087L8.7334 6.06737C9.72891 8.0953 11.3777 9.74413 13.4062 10.7402L14.6977 9.16405C14.9522 8.84823 15.3917 8.73895 15.7661 8.90111L18.9448 10.2637C19.3271 10.4648 19.5762 10.9101 19.4766 11.3379Z" fill="white"/>
</g>
<defs>
<clipPath id="clip0_38_25">
<rect width="15" height="15" fill="white" transform="translate(4.5)"/>
</clipPath>
</defs>
</svg>
