<svg width="24" height="15" viewBox="0 0 24 15" fill="none" xmlns="http://www.w3.org/2000/svg">
<g clip-path="url(#clip0_38_22)">
<path d="M18.0938 1.875C18.8701 1.875 19.5 2.50459 19.5 3.28125C19.5 3.72363 19.292 4.13965 18.9375 4.40625L12.5625 9.1875C12.2285 9.43652 11.7715 9.43652 11.4375 9.1875L5.0625 4.40625C4.70839 4.13965 4.5 3.72363 4.5 3.28125C4.5 2.50459 5.12959 1.875 5.90625 1.875H18.0938ZM10.875 9.9375C11.543 10.4385 12.457 10.4385 13.125 9.9375L19.5 5.15625V11.25C19.5 12.2842 18.6592 13.125 17.625 13.125H6.375C5.33936 13.125 4.5 12.2842 4.5 11.25V5.15625L10.875 9.9375Z" fill="white"/>
</g>
<defs>
<clipPath id="clip0_38_22">
<rect width="15" height="15" fill="white" transform="translate(4.5)"/>
</clipPath>
</defs>
</svg>
