<svg width="256" height="81" viewBox="0 0 256 81" fill="none" xmlns="http://www.w3.org/2000/svg">
<path d="M0.945 55.875C0.945 54.6617 1.19583 53.5825 1.6975 52.6375C2.21083 51.6808 2.91083 50.9342 3.7975 50.3975C4.69583 49.8608 5.69917 49.5925 6.8075 49.5925C8.2075 49.5925 9.38583 49.9192 10.3425 50.5725C11.2992 51.2258 11.9992 52.1417 12.4425 53.32H11.5325C11.1825 52.3867 10.5992 51.6517 9.7825 51.115C8.9775 50.5667 7.98583 50.2925 6.8075 50.2925C5.8625 50.2925 5.005 50.52 4.235 50.975C3.465 51.4183 2.85833 52.0658 2.415 52.9175C1.97167 53.7575 1.75 54.7433 1.75 55.875C1.75 56.995 1.97167 57.975 2.415 58.815C2.85833 59.6433 3.465 60.285 4.235 60.74C5.005 61.195 5.8625 61.4225 6.8075 61.4225C7.98583 61.4225 8.9775 61.1542 9.7825 60.6175C10.5992 60.0692 11.1825 59.3283 11.5325 58.395H12.4425C11.9992 59.5733 11.2992 60.4892 10.3425 61.1425C9.38583 61.7958 8.2075 62.1225 6.8075 62.1225C5.69917 62.1225 4.69583 61.86 3.7975 61.335C2.91083 60.7983 2.21083 60.0575 1.6975 59.1125C1.19583 58.1558 0.945 57.0767 0.945 55.875ZM23.6168 62.14C22.4851 62.14 21.4643 61.8775 20.5543 61.3525C19.6443 60.8158 18.9326 60.0692 18.4193 59.1125C17.906 58.1558 17.6493 57.0767 17.6493 55.875C17.6493 54.6617 17.906 53.5825 18.4193 52.6375C18.9326 51.6808 19.6443 50.94 20.5543 50.415C21.4643 49.8783 22.4851 49.61 23.6168 49.61C24.7485 49.61 25.7693 49.8783 26.6793 50.415C27.5893 50.94 28.301 51.6808 28.8143 52.6375C29.3276 53.5825 29.5843 54.6617 29.5843 55.875C29.5843 57.0767 29.3276 58.1558 28.8143 59.1125C28.301 60.0692 27.5893 60.8158 26.6793 61.3525C25.7693 61.8775 24.7485 62.14 23.6168 62.14ZM23.6168 61.44C24.5851 61.44 25.4601 61.2125 26.2418 60.7575C27.0235 60.3025 27.636 59.655 28.0793 58.815C28.5343 57.975 28.7618 56.995 28.7618 55.875C28.7618 54.7433 28.5343 53.7575 28.0793 52.9175C27.636 52.0775 27.0235 51.43 26.2418 50.975C25.4601 50.52 24.5851 50.2925 23.6168 50.2925C22.6485 50.2925 21.7735 50.52 20.9918 50.975C20.2101 51.43 19.5918 52.0775 19.1368 52.9175C18.6818 53.7575 18.4543 54.7433 18.4543 55.875C18.4543 56.995 18.6818 57.975 19.1368 58.815C19.5918 59.655 20.2101 60.3025 20.9918 60.7575C21.7735 61.2125 22.6485 61.44 23.6168 61.44ZM41.835 62L38.685 56.7675H38.615H35.99V62H35.2025V49.715H38.58C39.945 49.715 40.9658 50.0358 41.6425 50.6775C42.3308 51.3192 42.675 52.1708 42.675 53.2325C42.675 54.1775 42.4066 54.9592 41.87 55.5775C41.345 56.1842 40.575 56.5575 39.56 56.6975L42.78 62H41.835ZM35.99 56.1025H38.615C39.7 56.1025 40.5108 55.84 41.0475 55.315C41.5841 54.79 41.8525 54.0958 41.8525 53.2325C41.8525 51.3542 40.7616 50.415 38.58 50.415H35.99V56.1025ZM54.8821 62L51.7321 56.7675H51.6621H49.0371V62H48.2496V49.715H51.6271C52.9921 49.715 54.0129 50.0358 54.6896 50.6775C55.3779 51.3192 55.7221 52.1708 55.7221 53.2325C55.7221 54.1775 55.4537 54.9592 54.9171 55.5775C54.3921 56.1842 53.6221 56.5575 52.6071 56.6975L55.8271 62H54.8821ZM49.0371 56.1025H51.6621C52.7471 56.1025 53.5579 55.84 54.0946 55.315C54.6312 54.79 54.8996 54.0958 54.8996 53.2325C54.8996 51.3542 53.8087 50.415 51.6271 50.415H49.0371V56.1025ZM62.0841 50.38V55.5075H66.9841V56.1725H62.0841V61.335H67.5091V62H61.2966V49.715H67.5091V50.38H62.0841ZM79.9203 49.715V50.38H76.4203V62H75.6328V50.38H72.1328V49.715H79.9203ZM90.5099 62.14C89.3782 62.14 88.3574 61.8775 87.4474 61.3525C86.5374 60.8158 85.8257 60.0692 85.3124 59.1125C84.799 58.1558 84.5424 57.0767 84.5424 55.875C84.5424 54.6617 84.799 53.5825 85.3124 52.6375C85.8257 51.6808 86.5374 50.94 87.4474 50.415C88.3574 49.8783 89.3782 49.61 90.5099 49.61C91.6415 49.61 92.6624 49.8783 93.5724 50.415C94.4824 50.94 95.194 51.6808 95.7074 52.6375C96.2207 53.5825 96.4774 54.6617 96.4774 55.875C96.4774 57.0767 96.2207 58.1558 95.7074 59.1125C95.194 60.0692 94.4824 60.8158 93.5724 61.3525C92.6624 61.8775 91.6415 62.14 90.5099 62.14ZM90.5099 61.44C91.4782 61.44 92.3532 61.2125 93.1349 60.7575C93.9165 60.3025 94.529 59.655 94.9724 58.815C95.4274 57.975 95.6549 56.995 95.6549 55.875C95.6549 54.7433 95.4274 53.7575 94.9724 52.9175C94.529 52.0775 93.9165 51.43 93.1349 50.975C92.3532 50.52 91.4782 50.2925 90.5099 50.2925C89.5415 50.2925 88.6665 50.52 87.8849 50.975C87.1032 51.43 86.4849 52.0775 86.0299 52.9175C85.5749 53.7575 85.3474 54.7433 85.3474 55.875C85.3474 56.995 85.5749 57.975 86.0299 58.815C86.4849 59.655 87.1032 60.3025 87.8849 60.7575C88.6665 61.2125 89.5415 61.44 90.5099 61.44ZM108.728 62L105.578 56.7675H105.508H102.883V62H102.096V49.715H105.473C106.838 49.715 107.859 50.0358 108.536 50.6775C109.224 51.3192 109.568 52.1708 109.568 53.2325C109.568 54.1775 109.3 54.9592 108.763 55.5775C108.238 56.1842 107.468 56.5575 106.453 56.6975L109.673 62H108.728ZM102.883 56.1025H105.508C106.593 56.1025 107.404 55.84 107.941 55.315C108.477 54.79 108.746 54.0958 108.746 53.2325C108.746 51.3542 107.655 50.415 105.473 50.415H102.883V56.1025ZM122.108 58.85H116.28L115.108 62H114.25L118.765 49.995H119.64L124.138 62H123.28L122.108 58.85ZM121.863 58.185L119.203 51.0275L116.525 58.185H121.863ZM140.976 49.715C143.052 49.715 144.651 50.2575 145.771 51.3425C146.902 52.4275 147.468 53.9383 147.468 55.875C147.468 57.8117 146.902 59.3167 145.771 60.39C144.651 61.4633 143.052 62 140.976 62H137.528V49.715H140.976ZM140.976 61.335C142.831 61.335 144.242 60.8567 145.211 59.9C146.179 58.9317 146.663 57.59 146.663 55.875C146.663 54.1483 146.179 52.8008 145.211 51.8325C144.242 50.8642 142.831 50.38 140.976 50.38H138.316V61.335H140.976ZM153.875 50.38V55.5075H158.775V56.1725H153.875V61.335H159.3V62H153.088V49.715H159.3V50.38H153.875ZM173.885 49.715V62H173.098V49.715H173.885ZM191.472 49.9775V62H190.685V51.6225L186.065 62H185.435L180.797 51.6225V62H180.01V49.9775H180.85L185.75 60.9675L190.65 49.9775H191.472ZM203.08 62.14C201.948 62.14 200.927 61.8775 200.017 61.3525C199.107 60.8158 198.396 60.0692 197.882 59.1125C197.369 58.1558 197.112 57.0767 197.112 55.875C197.112 54.6617 197.369 53.5825 197.882 52.6375C198.396 51.6808 199.107 50.94 200.017 50.415C200.927 49.8783 201.948 49.61 203.08 49.61C204.212 49.61 205.232 49.8783 206.142 50.415C207.052 50.94 207.764 51.6808 208.277 52.6375C208.791 53.5825 209.047 54.6617 209.047 55.875C209.047 57.0767 208.791 58.1558 208.277 59.1125C207.764 60.0692 207.052 60.8158 206.142 61.3525C205.232 61.8775 204.212 62.14 203.08 62.14ZM203.08 61.44C204.048 61.44 204.923 61.2125 205.705 60.7575C206.487 60.3025 207.099 59.655 207.542 58.815C207.997 57.975 208.225 56.995 208.225 55.875C208.225 54.7433 207.997 53.7575 207.542 52.9175C207.099 52.0775 206.487 51.43 205.705 50.975C204.923 50.52 204.048 50.2925 203.08 50.2925C202.112 50.2925 201.237 50.52 200.455 50.975C199.673 51.43 199.055 52.0775 198.6 52.9175C198.145 53.7575 197.917 54.7433 197.917 55.875C197.917 56.995 198.145 57.975 198.6 58.815C199.055 59.655 199.673 60.3025 200.455 60.7575C201.237 61.2125 202.112 61.44 203.08 61.44ZM204.725 47.0375L201.295 49.2075V48.56L204.725 46.2675V47.0375ZM223.941 49.715L219.251 62H218.376L213.703 49.715H214.561L218.813 61.0725L223.101 49.715H223.941ZM229.867 50.38V55.5075H234.767V56.1725H229.867V61.335H235.292V62H229.08V49.715H235.292V50.38H229.867ZM241.701 49.715V62H240.914V49.715H241.701ZM251.378 62.1225C250.585 62.1225 249.89 61.9825 249.295 61.7025C248.7 61.4225 248.234 61.0433 247.895 60.565C247.569 60.0867 247.382 59.5558 247.335 58.9725H248.158C248.251 59.6142 248.549 60.1858 249.05 60.6875C249.564 61.1892 250.34 61.44 251.378 61.44C251.985 61.44 252.51 61.3292 252.953 61.1075C253.408 60.8858 253.758 60.5825 254.003 60.1975C254.248 59.8125 254.37 59.3867 254.37 58.92C254.37 58.325 254.225 57.8525 253.933 57.5025C253.653 57.1525 253.297 56.89 252.865 56.715C252.445 56.54 251.874 56.3533 251.15 56.155C250.357 55.945 249.715 55.735 249.225 55.525C248.747 55.315 248.339 54.9942 248 54.5625C247.674 54.1192 247.51 53.5183 247.51 52.76C247.51 52.1767 247.662 51.6458 247.965 51.1675C248.28 50.6775 248.724 50.2925 249.295 50.0125C249.867 49.7325 250.526 49.5925 251.273 49.5925C252.358 49.5925 253.233 49.8608 253.898 50.3975C254.563 50.9342 254.96 51.5933 255.088 52.375H254.248C254.178 52.06 254.02 51.7392 253.775 51.4125C253.542 51.0858 253.204 50.8175 252.76 50.6075C252.329 50.3858 251.81 50.275 251.203 50.275C250.386 50.275 249.698 50.5025 249.138 50.9575C248.578 51.4008 248.298 51.9958 248.298 52.7425C248.298 53.3375 248.444 53.8158 248.735 54.1775C249.027 54.5275 249.383 54.7958 249.803 54.9825C250.235 55.1575 250.812 55.3383 251.535 55.525C252.34 55.7467 252.976 55.9625 253.443 56.1725C253.921 56.3708 254.324 56.6917 254.65 57.135C254.989 57.5667 255.158 58.1558 255.158 58.9025C255.158 59.4508 255.012 59.97 254.72 60.46C254.429 60.95 253.997 61.3525 253.425 61.6675C252.865 61.9708 252.183 62.1225 251.378 62.1225Z" fill="white"/>
<path d="M1.056 29.736C1.056 27.5173 1.536 25.544 2.496 23.816C3.456 22.0667 4.78933 20.712 6.496 19.752C8.224 18.7707 10.176 18.28 12.352 18.28C15.0187 18.28 17.3013 18.984 19.2 20.392C21.0987 21.8 22.368 23.72 23.008 26.152H16.992C16.544 25.2133 15.904 24.4987 15.072 24.008C14.2613 23.5173 13.3333 23.272 12.288 23.272C10.6027 23.272 9.23733 23.8587 8.192 25.032C7.14667 26.2053 6.624 27.7733 6.624 29.736C6.624 31.6987 7.14667 33.2667 8.192 34.44C9.23733 35.6133 10.6027 36.2 12.288 36.2C13.3333 36.2 14.2613 35.9547 15.072 35.464C15.904 34.9733 16.544 34.2587 16.992 33.32H23.008C22.368 35.752 21.0987 37.672 19.2 39.08C17.3013 40.4667 15.0187 41.16 12.352 41.16C10.176 41.16 8.224 40.68 6.496 39.72C4.78933 38.7387 3.456 37.384 2.496 35.656C1.536 33.928 1.056 31.9547 1.056 29.736ZM31.831 22.92V27.464H39.159V31.688H31.831V36.616H40.119V41H26.359V18.536H40.119V22.92H31.831ZM49.1435 36.776H56.3115V41H43.6715V18.536H49.1435V36.776ZM64.3935 22.92V27.464H71.7215V31.688H64.3935V36.616H72.6815V41H58.9215V18.536H72.6815V22.92H64.3935ZM84.362 41.224C82.7193 41.224 81.2473 40.9573 79.946 40.424C78.6447 39.8907 77.5993 39.1013 76.81 38.056C76.042 37.0107 75.6367 35.752 75.594 34.28H81.418C81.5033 35.112 81.7913 35.752 82.282 36.2C82.7727 36.6267 83.4127 36.84 84.202 36.84C85.0127 36.84 85.6527 36.6587 86.122 36.296C86.5913 35.912 86.826 35.3893 86.826 34.728C86.826 34.1733 86.634 33.7147 86.25 33.352C85.8873 32.9893 85.4287 32.6907 84.874 32.456C84.3407 32.2213 83.5727 31.9547 82.57 31.656C81.1193 31.208 79.9353 30.76 79.018 30.312C78.1007 29.864 77.3113 29.2027 76.65 28.328C75.9887 27.4533 75.658 26.312 75.658 24.904C75.658 22.8133 76.4153 21.1813 77.93 20.008C79.4447 18.8133 81.418 18.216 83.85 18.216C86.3247 18.216 88.3193 18.8133 89.834 20.008C91.3487 21.1813 92.1593 22.824 92.266 24.936H86.346C86.3033 24.2107 86.0367 23.6453 85.546 23.24C85.0553 22.8133 84.426 22.6 83.658 22.6C82.9967 22.6 82.4633 22.7813 82.058 23.144C81.6527 23.4853 81.45 23.9867 81.45 24.648C81.45 25.3733 81.7913 25.9387 82.474 26.344C83.1567 26.7493 84.2233 27.1867 85.674 27.656C87.1247 28.1467 88.298 28.616 89.194 29.064C90.1113 29.512 90.9007 30.1627 91.562 31.016C92.2233 31.8693 92.554 32.968 92.554 34.312C92.554 35.592 92.2233 36.7547 91.562 37.8C90.922 38.8453 89.9833 39.6773 88.746 40.296C87.5087 40.9147 86.0473 41.224 84.362 41.224ZM112.082 18.536V22.92H106.13V41H100.658V22.92H94.7055V18.536H112.082ZM120.3 22.92V27.464H127.628V31.688H120.3V36.616H128.588V41H114.828V18.536H128.588V22.92H120.3ZM164.362 18.536V41H158.89V27.528L153.866 41H149.45L144.394 27.496V41H138.922V18.536H145.385L151.69 34.088L157.93 18.536H164.362ZM182.281 37.032H173.897L172.553 41H166.825L174.953 18.536H181.289L189.417 41H183.625L182.281 37.032ZM180.873 32.808L178.089 24.584L175.337 32.808H180.873ZM190.962 29.736C190.962 27.5173 191.442 25.544 192.402 23.816C193.362 22.0667 194.696 20.712 196.402 19.752C198.13 18.7707 200.082 18.28 202.258 18.28C204.925 18.28 207.208 18.984 209.106 20.392C211.005 21.8 212.274 23.72 212.914 26.152H206.898C206.45 25.2133 205.81 24.4987 204.978 24.008C204.168 23.5173 203.24 23.272 202.194 23.272C200.509 23.272 199.144 23.8587 198.098 25.032C197.053 26.2053 196.53 27.7733 196.53 29.736C196.53 31.6987 197.053 33.2667 198.098 34.44C199.144 35.6133 200.509 36.2 202.194 36.2C203.24 36.2 204.168 35.9547 204.978 35.464C205.81 34.9733 206.45 34.2587 206.898 33.32H212.914C212.274 35.752 211.005 37.672 209.106 39.08C207.208 40.4667 204.925 41.16 202.258 41.16C200.082 41.16 198.13 40.68 196.402 39.72C194.696 38.7387 193.362 37.384 192.402 35.656C191.442 33.928 190.962 31.9547 190.962 29.736ZM221.737 18.536V41H216.265V18.536H221.737ZM231.175 22.92V27.464H238.503V31.688H231.175V36.616H239.463V41H225.703V18.536H239.463V22.92H231.175ZM248.487 36.776H255.655V41H243.015V18.536H248.487V36.776Z" fill="white"/>
</svg>
